# Made in Blockbench 4.0.5
mtllib materials.mtl

o Chain
v 0.15625 0.8125 0.15625
v 0.15625 0.8125 0.09375
v 0.15625 0.75 0.15625
v 0.15625 0.75 0.09375
v 0.09375 0.8125 0.09375
v 0.09375 0.8125 0.15625
v 0.09375 0.75 0.09375
v 0.09375 0.75 0.15625
vt 0.75 0.9791666666666666
vt 0.8125 0.9791666666666666
vt 0.8125 0.9583333333333334
vt 0.75 0.9583333333333334
vt 0.75 0.9791666666666666
vt 0.8125 0.9791666666666666
vt 0.8125 0.9583333333333334
vt 0.75 0.9583333333333334
vt 0.75 0.9791666666666666
vt 0.8125 0.9791666666666666
vt 0.8125 0.9583333333333334
vt 0.75 0.9583333333333334
vt 0.75 0.9791666666666666
vt 0.8125 0.9791666666666666
vt 0.8125 0.9583333333333334
vt 0.75 0.9583333333333334
vt 0.75 0.9791666666666666
vt 0.8125 0.9791666666666666
vt 0.8125 0.9583333333333334
vt 0.75 0.9583333333333334
vt 0.75 0.9791666666666666
vt 0.8125 0.9791666666666666
vt 0.8125 0.9583333333333334
vt 0.75 0.9583333333333334
vn 0 0 -1
vn 1 0 0
vn 0 0 1
vn -1 0 0
vn 0 1 0
vn 0 -1 0
usemtl m_0
f 4/4/1 7/3/1 5/2/1 2/1/1
f 3/8/2 4/7/2 2/6/2 1/5/2
f 8/12/3 3/11/3 1/10/3 6/9/3
f 7/16/4 8/15/4 6/14/4 5/13/4
f 6/20/5 1/19/5 2/18/5 5/17/5
f 7/24/6 4/23/6 3/22/6 8/21/6
o Chain
v 0.15625 0.5625 0.15625
v 0.15625 0.5625 0.09375
v 0.15625 0.5 0.15625
v 0.15625 0.5 0.09375
v 0.09375 0.5625 0.09375
v 0.09375 0.5625 0.15625
v 0.09375 0.5 0.09375
v 0.09375 0.5 0.15625
vt 0.75 0.9166666666666666
vt 0.8125 0.9166666666666666
vt 0.8125 0.8958333333333334
vt 0.75 0.8958333333333334
vt 0.75 0.9166666666666666
vt 0.8125 0.9166666666666666
vt 0.8125 0.8958333333333334
vt 0.75 0.8958333333333334
vt 0.75 0.9166666666666666
vt 0.8125 0.9166666666666666
vt 0.8125 0.8958333333333334
vt 0.75 0.8958333333333334
vt 0.75 0.9166666666666666
vt 0.8125 0.9166666666666666
vt 0.8125 0.8958333333333334
vt 0.75 0.8958333333333334
vt 0.75 0.9166666666666666
vt 0.8125 0.9166666666666666
vt 0.8125 0.8958333333333334
vt 0.75 0.8958333333333334
vt 0.75 0.9166666666666666
vt 0.8125 0.9166666666666666
vt 0.8125 0.8958333333333334
vt 0.75 0.8958333333333334
vn 0 0 -1
vn 1 0 0
vn 0 0 1
vn -1 0 0
vn 0 1 0
vn 0 -1 0
usemtl m_0
f 12/28/7 15/27/7 13/26/7 10/25/7
f 11/32/8 12/31/8 10/30/8 9/29/8
f 16/36/9 11/35/9 9/34/9 14/33/9
f 15/40/10 16/39/10 14/38/10 13/37/10
f 14/44/11 9/43/11 10/42/11 13/41/11
f 15/48/12 12/47/12 11/46/12 16/45/12
o Chain
v 0.21875 0.75 0.15625
v 0.21875 0.75 0.09375
v 0.21875 0.5625 0.15625
v 0.21875 0.5625 0.09375
v 0.15625 0.75 0.09375
v 0.15625 0.75 0.15625
v 0.15625 0.5625 0.09375
v 0.15625 0.5625 0.15625
vt 0.6875 0.9791666666666666
vt 0.75 0.9791666666666666
vt 0.75 0.9166666666666666
vt 0.6875 0.9166666666666666
vt 0.6875 0.9791666666666666
vt 0.75 0.9791666666666666
vt 0.75 0.9166666666666666
vt 0.6875 0.9166666666666666
vt 0.6875 0.9791666666666666
vt 0.75 0.9791666666666666
vt 0.75 0.9166666666666666
vt 0.6875 0.9166666666666666
vt 0.6875 0.9791666666666666
vt 0.75 0.9791666666666666
vt 0.75 0.9166666666666666
vt 0.6875 0.9166666666666666
vt 0.6875 0.9791666666666666
vt 0.75 0.9791666666666666
vt 0.75 0.9583333333333334
vt 0.6875 0.9583333333333334
vt 0.6875 0.9375
vt 0.75 0.9375
vt 0.75 0.9166666666666666
vt 0.6875 0.9166666666666666
vn 0 0 -1
vn 1 0 0
vn 0 0 1
vn -1 0 0
vn 0 1 0
vn 0 -1 0
usemtl m_0
f 20/52/13 23/51/13 21/50/13 18/49/13
f 19/56/14 20/55/14 18/54/14 17/53/14
f 24/60/15 19/59/15 17/58/15 22/57/15
f 23/64/16 24/63/16 22/62/16 21/61/16
f 22/68/17 17/67/17 18/66/17 21/65/17
f 23/72/18 20/71/18 19/70/18 24/69/18
o Chain
v 0.09375 0.75 0.15625
v 0.09375 0.75 0.09375
v 0.09375 0.5625 0.15625
v 0.09375 0.5625 0.09375
v 0.03125 0.75 0.09375
v 0.03125 0.75 0.15625
v 0.03125 0.5625 0.09375
v 0.03125 0.5625 0.15625
vt 0.6875 0.9791666666666666
vt 0.75 0.9791666666666666
vt 0.75 0.9166666666666666
vt 0.6875 0.9166666666666666
vt 0.6875 0.9791666666666666
vt 0.75 0.9791666666666666
vt 0.75 0.9166666666666666
vt 0.6875 0.9166666666666666
vt 0.6875 0.9791666666666666
vt 0.75 0.9791666666666666
vt 0.75 0.9166666666666666
vt 0.6875 0.9166666666666666
vt 0.6875 0.9791666666666666
vt 0.75 0.9791666666666666
vt 0.75 0.9166666666666666
vt 0.6875 0.9166666666666666
vt 0.6875 0.9791666666666666
vt 0.75 0.9791666666666666
vt 0.75 0.9583333333333334
vt 0.6875 0.9583333333333334
vt 0.6875 0.9375
vt 0.75 0.9375
vt 0.75 0.9166666666666666
vt 0.6875 0.9166666666666666
vn 0 0 -1
vn 1 0 0
vn 0 0 1
vn -1 0 0
vn 0 1 0
vn 0 -1 0
usemtl m_0
f 28/76/19 31/75/19 29/74/19 26/73/19
f 27/80/20 28/79/20 26/78/20 25/77/20
f 32/84/21 27/83/21 25/82/21 30/81/21
f 31/88/22 32/87/22 30/86/22 29/85/22
f 30/92/23 25/91/23 26/90/23 29/89/23
f 31/96/24 28/95/24 27/94/24 32/93/24
o Lantern
v 0.25 0.5 0.25
v 0.25 0.5 0
v 0.25 0.375 0.25
v 0.25 0.375 0
v 0 0.5 0
v 0 0.5 0.25
v 0 0.375 0
v 0 0.375 0.25
vt 0.0625 1
vt 0.3125 1
vt 0.3125 0.9583333333333334
vt 0.0625 0.9583333333333334
vt 0.0625 1
vt 0.3125 1
vt 0.3125 0.9583333333333334
vt 0.0625 0.9583333333333334
vt 0.0625 1
vt 0.3125 1
vt 0.3125 0.9583333333333334
vt 0.0625 0.9583333333333334
vt 0.0625 1
vt 0.3125 1
vt 0.3125 0.9583333333333334
vt 0.0625 0.9583333333333334
vt 0.0625 0.7916666666666666
vt 0.3125 0.7916666666666666
vt 0.3125 0.7083333333333333
vt 0.0625 0.7083333333333333
vn 0 0 -1
vn 1 0 0
vn 0 0 1
vn -1 0 0
vn 0 1 0
usemtl m_0
f 36/100/25 39/99/25 37/98/25 34/97/25
f 35/104/26 36/103/26 34/102/26 33/101/26
f 40/108/27 35/107/27 33/106/27 38/105/27
f 39/112/28 40/111/28 38/110/28 37/109/28
f 38/116/29 33/115/29 34/114/29 37/113/29
o Lantern
v 0 0.3125 0.3125
v 0 0.3125 0.25
v 0 0 0.3125
v 0 0 0.25
v -0.0625 0.3125 0.25
v -0.0625 0.3125 0.3125
v -0.0625 0 0.25
v -0.0625 0 0.3125
vt 0.3125 0.9375
vt 0.375 0.9375
vt 0.375 0.8333333333333334
vt 0.3125 0.8333333333333334
vt 0.3125 0.9375
vt 0.375 0.9375
vt 0.375 0.8333333333333334
vt 0.3125 0.8333333333333334
vt 0.3125 0.9375
vt 0.375 0.9375
vt 0.375 0.8333333333333334
vt 0.3125 0.8333333333333334
vt 0.3125 0.9375
vt 0.375 0.9375
vt 0.375 0.8333333333333334
vt 0.3125 0.8333333333333334
vn 0 0 -1
vn 1 0 0
vn 0 0 1
vn -1 0 0
usemtl m_0
f 44/120/30 47/119/30 45/118/30 42/117/30
f 43/124/31 44/123/31 42/122/31 41/121/31
f 48/128/32 43/127/32 41/126/32 46/125/32
f 47/132/33 48/131/33 46/130/33 45/129/33
o Lantern
v 0.3125 0.3125 0.3125
v 0.3125 0.3125 0.25
v 0.3125 0 0.3125
v 0.3125 0 0.25
v 0.25 0.3125 0.25
v 0.25 0.3125 0.3125
v 0.25 0 0.25
v 0.25 0 0.3125
vt 0 0.9375
vt 0.0625 0.9375
vt 0.0625 0.8333333333333334
vt 0 0.8333333333333334
vt 0 0.9375
vt 0.0625 0.9375
vt 0.0625 0.8333333333333334
vt 0 0.8333333333333334
vt 0 0.9375
vt 0.0625 0.9375
vt 0.0625 0.8333333333333334
vt 0 0.8333333333333334
vt 0 0.9375
vt 0.0625 0.9375
vt 0.0625 0.8333333333333334
vt 0 0.8333333333333334
vn 0 0 -1
vn 1 0 0
vn 0 0 1
vn -1 0 0
usemtl m_0
f 52/136/34 55/135/34 53/134/34 50/133/34
f 51/140/35 52/139/35 50/138/35 49/137/35
f 56/144/36 51/143/36 49/142/36 54/141/36
f 55/148/37 56/147/37 54/146/37 53/145/37
o Lantern
v 0.3125 0.3125 0
v 0.3125 0.3125 -0.0625
v 0.3125 0 0
v 0.3125 0 -0.0625
v 0.25 0.3125 -0.0625
v 0.25 0.3125 0
v 0.25 0 -0.0625
v 0.25 0 0
vt 0 0.9375
vt 0.0625 0.9375
vt 0.0625 0.8333333333333334
vt 0 0.8333333333333334
vt 0 0.9375
vt 0.0625 0.9375
vt 0.0625 0.8333333333333334
vt 0 0.8333333333333334
vt 0 0.9375
vt 0.0625 0.9375
vt 0.0625 0.8333333333333334
vt 0 0.8333333333333334
vt 0 0.9375
vt 0.0625 0.9375
vt 0.0625 0.8333333333333334
vt 0 0.8333333333333334
vn 0 0 -1
vn 1 0 0
vn 0 0 1
vn -1 0 0
usemtl m_0
f 60/152/38 63/151/38 61/150/38 58/149/38
f 59/156/39 60/155/39 58/154/39 57/153/39
f 64/160/40 59/159/40 57/158/40 62/157/40
f 63/164/41 64/163/41 62/162/41 61/161/41
o Lantern
v 0 0.3125 0
v 0 0.3125 -0.0625
v 0 0 0
v 0 0 -0.0625
v -0.0625 0.3125 -0.0625
v -0.0625 0.3125 0
v -0.0625 0 -0.0625
v -0.0625 0 0
vt 0.3125 0.9375
vt 0.375 0.9375
vt 0.375 0.8333333333333334
vt 0.3125 0.8333333333333334
vt 0.3125 0.9375
vt 0.375 0.9375
vt 0.375 0.8333333333333334
vt 0.3125 0.8333333333333334
vt 0.3125 0.9375
vt 0.375 0.9375
vt 0.375 0.8333333333333334
vt 0.3125 0.8333333333333334
vt 0.3125 0.9375
vt 0.375 0.9375
vt 0.375 0.8333333333333334
vt 0.3125 0.8333333333333334
vn 0 0 -1
vn 1 0 0
vn 0 0 1
vn -1 0 0
usemtl m_0
f 68/168/42 71/167/42 69/166/42 66/165/42
f 67/172/43 68/171/43 66/170/43 65/169/43
f 72/176/44 67/175/44 65/174/44 70/173/44
f 71/180/45 72/179/45 70/178/45 69/177/45
o Lantern
v 0.3125 0 0.3125
v 0.3125 0 -0.0625
v 0.3125 -0.0625 0.3125
v 0.3125 -0.0625 -0.0625
v -0.0625 0 -0.0625
v -0.0625 0 0.3125
v -0.0625 -0.0625 -0.0625
v -0.0625 -0.0625 0.3125
vt 0 0.8333333333333334
vt 0.375 0.8333333333333334
vt 0.375 0.8125
vt 0 0.8125
vt 0 0.8333333333333334
vt 0.375 0.8333333333333334
vt 0.375 0.8125
vt 0 0.8125
vt 0 0.8333333333333334
vt 0.375 0.8333333333333334
vt 0.375 0.8125
vt 0 0.8125
vt 0 0.8333333333333334
vt 0.375 0.8333333333333334
vt 0.375 0.8125
vt 0 0.8125
vt 0 0.8125
vt 0.375 0.8125
vt 0.375 0.6875
vt 0 0.6875
vt 0 0.8125
vt 0.375 0.8125
vt 0.375 0.6875
vt 0 0.6875
vn 0 0 -1
vn 1 0 0
vn 0 0 1
vn -1 0 0
vn 0 1 0
vn 0 -1 0
usemtl m_0
f 76/184/46 79/183/46 77/182/46 74/181/46
f 75/188/47 76/187/47 74/186/47 73/185/47
f 80/192/48 75/191/48 73/190/48 78/189/48
f 79/196/49 80/195/49 78/194/49 77/193/49
f 78/200/50 73/199/50 74/198/50 77/197/50
f 79/204/51 76/203/51 75/202/51 80/201/51
o Lantern
v 0.3125 0.375 0.3125
v 0.3125 0.375 -0.0625
v 0.3125 0.3125 0.3125
v 0.3125 0.3125 -0.0625
v -0.0625 0.375 -0.0625
v -0.0625 0.375 0.3125
v -0.0625 0.3125 -0.0625
v -0.0625 0.3125 0.3125
vt 0 0.9583333333333334
vt 0.375 0.9583333333333334
vt 0.375 0.9375
vt 0 0.9375
vt 0 0.9583333333333334
vt 0.375 0.9583333333333334
vt 0.375 0.9375
vt 0 0.9375
vt 0 0.9583333333333334
vt 0.375 0.9583333333333334
vt 0.375 0.9375
vt 0 0.9375
vt 0 0.9583333333333334
vt 0.375 0.9583333333333334
vt 0.375 0.9375
vt 0 0.9375
vt 0 0.8125
vt 0.375 0.8125
vt 0.375 0.6875
vt 0 0.6875
vt 0 0.8125
vt 0.375 0.8125
vt 0.375 0.6875
vt 0 0.6875
vn 0 0 -1
vn 1 0 0
vn 0 0 1
vn -1 0 0
vn 0 1 0
vn 0 -1 0
usemtl m_0
f 84/208/52 87/207/52 85/206/52 82/205/52
f 83/212/53 84/211/53 82/210/53 81/209/53
f 88/216/54 83/215/54 81/214/54 86/213/54
f 87/220/55 88/219/55 86/218/55 85/217/55
f 86/224/56 81/223/56 82/222/56 85/221/56
f 87/228/57 84/227/57 83/226/57 88/225/57
o Lantern
v 0.25 0.3125 0.25
v 0.25 0.3125 0
v 0.25 0 0.25
v 0.25 0 0
v 0 0.3125 0
v 0 0.3125 0.25
v 0 0 0
v 0 0 0.25
vt 0.0625 0.9375
vt 0.3125 0.9375
vt 0.3125 0.8333333333333334
vt 0.0625 0.8333333333333334
vt 0.0625 0.9375
vt 0.3125 0.9375
vt 0.3125 0.8333333333333334
vt 0.0625 0.8333333333333334
vt 0.0625 0.9375
vt 0.3125 0.9375
vt 0.3125 0.8333333333333334
vt 0.0625 0.8333333333333334
vt 0.0625 0.9375
vt 0.3125 0.9375
vt 0.3125 0.8333333333333334
vt 0.0625 0.8333333333333334
vn 0 0 -1
vn 1 0 0
vn 0 0 1
vn -1 0 0
usemtl m_0
f 92/232/58 95/231/58 93/230/58 90/229/58
f 91/236/59 92/235/59 90/234/59 89/233/59
f 96/240/60 91/239/60 89/238/60 94/237/60
f 95/244/61 96/243/61 94/242/61 93/241/61
o Chain2
v 0.09514284893073371 1 0.15758336277959978
v 0.15758336277959983 1 0.1548571510692663
v 0.09514284893073369 0.9375 0.15758336277959978
v 0.1575833627795998 0.9375 0.1548571510692663
v 0.15485715106926637 1 0.0924166372204002
v 0.09241663722040025 1 0.09514284893073366
v 0.15485715106926634 0.9375 0.0924166372204002
v 0.09241663722040022 0.9375 0.09514284893073366
vt 0.75 0.9791666666666666
vt 0.8125 0.9791666666666666
vt 0.8125 0.9583333333333334
vt 0.75 0.9583333333333334
vt 0.75 0.9791666666666666
vt 0.8125 0.9791666666666666
vt 0.8125 0.9583333333333334
vt 0.75 0.9583333333333334
vt 0.75 0.9791666666666666
vt 0.8125 0.9791666666666666
vt 0.8125 0.9583333333333334
vt 0.75 0.9583333333333334
vt 0.75 0.9791666666666666
vt 0.8125 0.9791666666666666
vt 0.8125 0.9583333333333334
vt 0.75 0.9583333333333334
vt 0.75 0.9791666666666666
vt 0.8125 0.9791666666666666
vt 0.8125 0.9583333333333334
vt 0.75 0.9583333333333334
vt 0.75 0.9791666666666666
vt 0.8125 0.9791666666666666
vt 0.8125 0.9583333333333334
vt 0.75 0.9583333333333334
vn 0.9990482215818579 -2.445797930500569e-16 -0.04361938736533533
vn 0.04361938736533533 -1.0678584380934062e-17 0.9990482215818579
vn -0.9990482215818579 2.445797930500569e-16 0.04361938736533533
vn -0.04361938736533533 1.0678584380934062e-17 -0.9990482215818579
vn 2.448128005901435e-16 1 1.2325951644078307e-32
vn -2.448128005901435e-16 -1 -1.2325951644078307e-32
usemtl m_0
f 100/248/62 103/247/62 101/246/62 98/245/62
f 99/252/63 100/251/63 98/250/63 97/249/63
f 104/256/64 99/255/64 97/254/64 102/253/64
f 103/260/65 104/259/65 102/258/65 101/257/65
f 102/264/66 97/263/66 98/262/66 101/261/66
f 103/268/67 100/267/67 99/266/67 104/265/67
o Chain2
v 0.09514284893073363 0.75 0.15758336277959978
v 0.15758336277959978 0.75 0.1548571510692663
v 0.09514284893073363 0.6875 0.15758336277959978
v 0.15758336277959975 0.6875 0.1548571510692663
v 0.15485715106926629 0.75 0.0924166372204002
v 0.0924166372204002 0.75 0.09514284893073366
v 0.15485715106926629 0.6875 0.0924166372204002
v 0.09241663722040017 0.6875 0.09514284893073366
vt 0.75 0.9166666666666666
vt 0.8125 0.9166666666666666
vt 0.8125 0.8958333333333334
vt 0.75 0.8958333333333334
vt 0.75 0.9166666666666666
vt 0.8125 0.9166666666666666
vt 0.8125 0.8958333333333334
vt 0.75 0.8958333333333334
vt 0.75 0.9166666666666666
vt 0.8125 0.9166666666666666
vt 0.8125 0.8958333333333334
vt 0.75 0.8958333333333334
vt 0.75 0.9166666666666666
vt 0.8125 0.9166666666666666
vt 0.8125 0.8958333333333334
vt 0.75 0.8958333333333334
vt 0.75 0.9166666666666666
vt 0.8125 0.9166666666666666
vt 0.8125 0.8958333333333334
vt 0.75 0.8958333333333334
vt 0.75 0.9166666666666666
vt 0.8125 0.9166666666666666
vt 0.8125 0.8958333333333334
vt 0.75 0.8958333333333334
vn 0.9990482215818579 -2.445797930500569e-16 -0.04361938736533533
vn 0.04361938736533533 -1.0678584380934062e-17 0.9990482215818579
vn -0.9990482215818579 2.445797930500569e-16 0.04361938736533533
vn -0.04361938736533533 1.0678584380934062e-17 -0.9990482215818579
vn 2.448128005901435e-16 1 1.2325951644078307e-32
vn -2.448128005901435e-16 -1 -1.2325951644078307e-32
usemtl m_0
f 108/272/68 111/271/68 109/270/68 106/269/68
f 107/276/69 108/275/69 106/274/69 105/273/69
f 112/280/70 107/279/70 105/278/70 110/277/70
f 111/284/71 112/283/71 110/282/71 109/281/71
f 110/288/72 105/287/72 106/286/72 109/285/72
f 111/292/73 108/291/73 107/290/73 112/289/73
o Chain2
v 0.09786906064106715 0.9375 0.2200238766284659
v 0.16030957448993327 0.9375 0.21729766491813243
v 0.0978690606410671 0.75 0.2200238766284659
v 0.16030957448993322 0.75 0.21729766491813243
v 0.1575833627795998 0.9375 0.1548571510692663
v 0.09514284893073369 0.9375 0.15758336277959978
v 0.15758336277959978 0.75 0.1548571510692663
v 0.09514284893073363 0.75 0.15758336277959978
vt 0.6875 0.9791666666666666
vt 0.75 0.9791666666666666
vt 0.75 0.9166666666666666
vt 0.6875 0.9166666666666666
vt 0.6875 0.9791666666666666
vt 0.75 0.9791666666666666
vt 0.75 0.9166666666666666
vt 0.6875 0.9166666666666666
vt 0.6875 0.9791666666666666
vt 0.75 0.9791666666666666
vt 0.75 0.9166666666666666
vt 0.6875 0.9166666666666666
vt 0.6875 0.9791666666666666
vt 0.75 0.9791666666666666
vt 0.75 0.9166666666666666
vt 0.6875 0.9166666666666666
vt 0.6875 0.9791666666666666
vt 0.75 0.9791666666666666
vt 0.75 0.9583333333333334
vt 0.6875 0.9583333333333334
vt 0.6875 0.9375
vt 0.75 0.9375
vt 0.75 0.9166666666666666
vt 0.6875 0.9166666666666666
vn 0.9990482215818579 -2.445797930500569e-16 -0.04361938736533533
vn 0.04361938736533533 -1.0678584380934062e-17 0.9990482215818579
vn -0.9990482215818579 2.445797930500569e-16 0.04361938736533533
vn -0.04361938736533533 1.0678584380934062e-17 -0.9990482215818579
vn 2.448128005901435e-16 1 1.2325951644078307e-32
vn -2.448128005901435e-16 -1 -1.2325951644078307e-32
usemtl m_0
f 116/296/74 119/295/74 117/294/74 114/293/74
f 115/300/75 116/299/75 114/298/75 113/297/75
f 120/304/76 115/303/76 113/302/76 118/301/76
f 119/308/77 120/307/77 118/306/77 117/305/77
f 118/312/78 113/311/78 114/310/78 117/309/78
f 119/316/79 116/315/79 115/314/79 120/313/79
o Chain2
v 0.09241663722040022 0.9375 0.09514284893073366
v 0.15485715106926634 0.9375 0.0924166372204002
v 0.0924166372204002 0.75 0.09514284893073366
v 0.15485715106926629 0.75 0.0924166372204002
v 0.1521309393589329 0.9375 0.029976123371534075
v 0.08969042551006678 0.9375 0.03270233508186754
v 0.15213093935893285 0.75 0.029976123371534075
v 0.08969042551006673 0.75 0.03270233508186754
vt 0.6875 0.9791666666666666
vt 0.75 0.9791666666666666
vt 0.75 0.9166666666666666
vt 0.6875 0.9166666666666666
vt 0.6875 0.9791666666666666
vt 0.75 0.9791666666666666
vt 0.75 0.9166666666666666
vt 0.6875 0.9166666666666666
vt 0.6875 0.9791666666666666
vt 0.75 0.9791666666666666
vt 0.75 0.9166666666666666
vt 0.6875 0.9166666666666666
vt 0.6875 0.9791666666666666
vt 0.75 0.9791666666666666
vt 0.75 0.9166666666666666
vt 0.6875 0.9166666666666666
vt 0.6875 0.9791666666666666
vt 0.75 0.9791666666666666
vt 0.75 0.9583333333333334
vt 0.6875 0.9583333333333334
vt 0.6875 0.9375
vt 0.75 0.9375
vt 0.75 0.9166666666666666
vt 0.6875 0.9166666666666666
vn 0.9990482215818579 -2.445797930500569e-16 -0.04361938736533533
vn 0.04361938736533533 -1.0678584380934062e-17 0.9990482215818579
vn -0.9990482215818579 2.445797930500569e-16 0.04361938736533533
vn -0.04361938736533533 1.0678584380934062e-17 -0.9990482215818579
vn 2.448128005901435e-16 1 1.2325951644078307e-32
vn -2.448128005901435e-16 -1 -1.2325951644078307e-32
usemtl m_0
f 124/320/80 127/319/80 125/318/80 122/317/80
f 123/324/81 124/323/81 122/322/81 121/321/81
f 128/328/82 123/327/82 121/326/82 126/325/82
f 127/332/83 128/331/83 126/330/83 125/329/83
f 126/336/84 121/335/84 122/334/84 125/333/84
f 127/340/85 124/339/85 123/338/85 128/337/85